<svg xmlns="http://www.w3.org/2000/svg" xmlns:xlink="http://www.w3.org/1999/xlink" width="166" height="166" viewBox="0 0 166 166"><defs><linearGradient id="linear-gradient" x1="1.437" y1="0.282" x2="0.311" y2="0.523" gradientUnits="objectBoundingBox"><stop offset="0" stop-color="#0abecf"></stop><stop offset="1" stop-color="#47499e"></stop></linearGradient><linearGradient id="linear-gradient-2" x1="0.316" y1="-0.095" x2="0.689" y2="0.768" xlink:href="#linear-gradient"></linearGradient><clipPath id="clip-path"><path id="Path_530" data-name="Path 530" d="M11.69,64.034C17.177,81.757,39.254,82.46,63.857,74.841s40.1-13.964,34.617-31.686-27.01-49.618-51.619-42S6.21,46.306,11.69,64.034Z" transform="translate(-10.615 0)" fill="url(#linear-gradient)"></path></clipPath><linearGradient id="linear-gradient-4" x1="-0.002" y1="-0.133" x2="0.685" y2="0.937" xlink:href="#linear-gradient"></linearGradient><linearGradient id="linear-gradient-5" x1="1.441" y1="0.351" x2="0.286" y2="0.527" xlink:href="#linear-gradient"></linearGradient><linearGradient id="linear-gradient-6" x1="-0.008" y1="-0.205" x2="0.772" y2="0.877" xlink:href="#linear-gradient"></linearGradient><linearGradient id="linear-gradient-7" x1="-0.006" y1="-0.205" x2="0.771" y2="0.877" xlink:href="#linear-gradient"></linearGradient><linearGradient id="linear-gradient-8" x1="-0.008" y1="-0.205" x2="0.771" y2="0.878" xlink:href="#linear-gradient"></linearGradient></defs><g id="Group_170" data-name="Group 170" transform="translate(-68 -97)"><rect id="Rectangle_53" data-name="Rectangle 53" width="166" height="166" rx="29" transform="translate(68 97)" fill="#fff"></rect><g id="Group_145" data-name="Group 145" transform="translate(-3564.644 -417.183)"><g id="_8355715" data-name="8355715" transform="translate(3668 553.934)"><path id="Path_526" data-name="Path 526" d="M94.545,27.252C89.059,9.529,66.981,8.827,42.378,16.446S2.274,30.4,7.761,48.132s27.016,49.618,51.625,42,40.646-45.156,35.159-62.878Z" transform="translate(-2.691 -4.787)" fill="url(#linear-gradient-2)"></path><g id="Group_127" data-name="Group 127" transform="translate(6.323 0)"><path id="Path_527" data-name="Path 527" d="M11.69,64.034C17.177,81.757,39.254,82.46,63.857,74.841s40.1-13.964,34.617-31.686-27.01-49.618-51.619-42S6.21,46.306,11.69,64.034Z" transform="translate(-10.615 0)" fill="url(#linear-gradient)"></path><g id="Group_126" data-name="Group 126" clip-path="url(#clip-path)"><path id="Path_528" data-name="Path 528" d="M11.69,64.034C17.177,81.757,39.254,82.46,63.857,74.841s40.1-13.964,34.617-31.686-27.01-49.618-51.619-42S6.21,46.306,11.69,64.034Z" transform="translate(-10.615 0)" fill="url(#linear-gradient-4)"></path><path id="Path_529" data-name="Path 529" d="M69.551-3.25S109.369,55.333,40.2,82.1c0,0,27.939,28.97,65.309,12.576S113.569,5.733,69.551-3.25Z" transform="translate(-22.576 1.314)" fill="url(#linear-gradient-5)"></path></g></g><circle id="Ellipse_1" data-name="Ellipse 1" cx="5.802" cy="5.802" r="5.802" transform="translate(68.591 72.778) rotate(-19.05)" fill="url(#linear-gradient-6)"></circle><circle id="Ellipse_2" data-name="Ellipse 2" cx="2.371" cy="2.371" r="2.371" transform="translate(83.967 68.365)" fill="url(#linear-gradient-7)"></circle><circle id="Ellipse_3" data-name="Ellipse 3" cx="2.371" cy="2.371" r="2.371" transform="translate(0 45.906)" fill="url(#linear-gradient-8)"></circle></g><g id="_8355715-2" data-name="8355715" transform="translate(3696.07 566.179)"><path id="Path_596" data-name="Path 596" d="M25.762,48.941c-1.051,0-2.1,0-3.152,0a1.46,1.46,0,1,1,.009-2.9c1.621,0,3.242-.01,4.863,0a.6.6,0,0,0,.664-.442,33.14,33.14,0,0,1,6.235-9.935,36.7,36.7,0,0,0,3.886-4.895,15.948,15.948,0,0,0,2.383-7.375,19.61,19.61,0,0,0-.423-5.855,18.534,18.534,0,0,0-9.541-12.3,19.166,19.166,0,0,0-6.817-2.046c-.573-.061-.611.005-.381.531a3.991,3.991,0,0,1,.32,1.621q0,8.917,0,17.833c0,.713.009.731.662.43a23.846,23.846,0,0,1,3.1-1.069,1.529,1.529,0,0,0,1.141-1.148,5.286,5.286,0,0,1,.274-.995,1.269,1.269,0,0,1,1.185-.751,1.252,1.252,0,0,1,1.218.7,2.049,2.049,0,0,1,.207,1.31,4.2,4.2,0,0,1-2.954,3.426c-.943.389-1.927.665-2.858,1.09a3.089,3.089,0,0,0-1.908,2.9c-.147,2.956-.063,5.912-.052,8.868a5.468,5.468,0,0,1-.885,3.408,4.611,4.611,0,0,1-3.406,1.881,11.166,11.166,0,0,1-9.406-3.242,9.031,9.031,0,0,1-1.467-2.149.882.882,0,0,0-.56-.469,7.761,7.761,0,0,1-5.015-4.748,7.831,7.831,0,0,1-.522-3.974.527.527,0,0,0-.138-.492,8.085,8.085,0,0,1-2.3-5.064,15.139,15.139,0,0,1,1.6-9.119A5.251,5.251,0,0,1,3.4,12.11a.594.594,0,0,0,.308-.466A6.714,6.714,0,0,1,5.445,7.625a21.854,21.854,0,0,1,7.16-5.636A18.156,18.156,0,0,1,19,.121a21.833,21.833,0,0,1,9.962,1.192A24.069,24.069,0,0,1,35.3,4.686,21.454,21.454,0,0,1,43.64,21.147,19.284,19.284,0,0,1,41.595,30.9a26.883,26.883,0,0,1-3.645,5.177,42.881,42.881,0,0,0-5.1,6.618,27.133,27.133,0,0,0-2.232,4.81c-.4,1.15-.789,1.437-2.018,1.437H25.761ZM21,8.16h0c0-.825,0-1.651,0-2.477A2.113,2.113,0,0,0,19.352,3.45a5.289,5.289,0,0,0-3.275.118A17.173,17.173,0,0,0,8.446,8.482a4.227,4.227,0,0,0-1.141,1.96c-.066.331-.033.486.362.4a4.449,4.449,0,0,1,2.139.06,4.014,4.014,0,0,1,2.774,2.486,1.3,1.3,0,0,1-.314,1.5,1.385,1.385,0,0,1-1.455.345,2.033,2.033,0,0,1-.99-.811,2.705,2.705,0,0,0-2.778-1.074A4.335,4.335,0,0,0,4,15.794a10.849,10.849,0,0,0-1.153,4.276,9.666,9.666,0,0,0,.717,4.936c.126.278.227.42.485.116a7.841,7.841,0,0,1,3.535-2.31,5.778,5.778,0,0,1,2.923-.307,1.338,1.338,0,0,1,.045,2.655,4.828,4.828,0,0,1-1.074.087,4.134,4.134,0,0,0-3.835,2.728,5.22,5.22,0,0,0,1.367,5.544c.175.19.382.561.593.47.247-.107.132-.511.152-.789a7.081,7.081,0,0,1,3.015-5.489,7.748,7.748,0,0,1,5.487-1.279,1.887,1.887,0,0,1,1.268.618,1.289,1.289,0,0,1,.172,1.473,1.583,1.583,0,0,1-1.576.748,6.345,6.345,0,0,0-1.437-.054,4.307,4.307,0,0,0-3.622,2.326,6.074,6.074,0,0,0,1.539,6.9,8.862,8.862,0,0,0,6.415,2A1.874,1.874,0,0,0,21,38.3q0-10.448,0-20.9a11.834,11.834,0,0,0-.121-1.569,2.628,2.628,0,0,0-1.292-2.01,9.86,9.86,0,0,0-2.056-.9,10.733,10.733,0,0,1-2.584-1.149,3.592,3.592,0,0,1-1.684-3.5,1.365,1.365,0,0,1,2.7-.207c.062.232.1.47.159.7a1.386,1.386,0,0,0,.951,1.046,26.283,26.283,0,0,1,3.594,1.3c.293.151.334,0,.333-.244,0-.9,0-1.8,0-2.7Z" transform="translate(0 0)" fill="#fff"></path><path id="Path_597" data-name="Path 597" d="M118.415,573.192c2.955,0,5.91-.005,8.865,0a1.426,1.426,0,0,1,1.423,1.923,1.551,1.551,0,0,1-1.527.977q-3.555.009-7.11.007-5.221,0-10.441,0a1.453,1.453,0,0,1-1.625-1.33,1.4,1.4,0,0,1,1.458-1.572c1.455-.014,2.911-.005,4.365-.006h4.59v0Z" transform="translate(-98.266 -521.492)" fill="#fff"></path><path id="Path_598" data-name="Path 598" d="M177.83,638.346q-2.9,0-5.809,0a1.709,1.709,0,0,1-1.327-.447,1.343,1.343,0,0,1-.324-1.533,1.36,1.36,0,0,1,1.3-.932c4.022-.118,8.044-.027,12.067-.06a1.546,1.546,0,0,1,1.384.606,1.349,1.349,0,0,1,.165,1.481,1.54,1.54,0,0,1-1.464.874c-1.471.015-2.942.007-4.413.009h-1.577v0Z" transform="translate(-154.907 -578.066)" fill="#fff"></path><path id="Path_599" data-name="Path 599" d="M171.7,513.3a1.467,1.467,0,0,1-1.476-1.449,1.478,1.478,0,1,1,2.956.051A1.477,1.477,0,0,1,171.7,513.3Z" transform="translate(-154.878 -464.365)" fill="#fff"></path><path id="Path_600" data-name="Path 600" d="M109.423,636.12a1.383,1.383,0,0,1,1.472,1.416,1.508,1.508,0,0,1-1.5,1.484,1.456,1.456,0,0,1-1.408-1.46,1.358,1.358,0,0,1,1.432-1.44Z" transform="translate(-98.26 -578.746)" fill="#fff"></path><path id="Path_601" data-name="Path 601" d="M45.743,574.672a1.4,1.4,0,0,1,1.515-1.382,1.445,1.445,0,0,1,1.387,1.485,1.478,1.478,0,0,1-1.513,1.413,1.413,1.413,0,0,1-1.39-1.517Z" transform="translate(-41.626 -521.581)" fill="#fff"></path></g></g></g></svg>