<svg xmlns="http://www.w3.org/2000/svg" xmlns:xlink="http://www.w3.org/1999/xlink" id="Layer_1" x="0px" y="0px" viewBox="0 0 366.7 88" style="enable-background:new 0 0 366.7 88;" xml:space="preserve"><style type="text/css">	.st0{fill:#47499E;}	.st1{fill:url(#Path_526_00000047055795270753238350000016205522412091284867_);}	.st2{fill:url(#Path_527_00000142873062298673745390000010808777683267203764_);}	.st3{clip-path:url(#SVGID_00000121985741732869611490000003792981502457816480_);}	.st4{fill:url(#Path_528_00000113329294596073340030000004486488111325129391_);}	.st5{fill:url(#Path_529_00000021120470648425685570000002889292654597419697_);}	.st6{fill:url(#Ellipse_1_00000068650052797757450560000007103585775158408089_);}	.st7{fill:url(#Ellipse_2_00000138562138796452130640000008758385436987676845_);}	.st8{fill:url(#Ellipse_3_00000153690236927087389670000006435491425345288880_);}	.st9{fill:#FFFFFF;}</style><g id="Group_172" transform="translate(-87 -494)">	<g id="Group_143">		<g>			<path class="st0" d="M228.5,510H228v19.3c0,0,0,0-0.1-0.1c-2-2-4.3-3.5-6.8-4.6c-2.6-1.1-5.4-1.7-8.4-1.7c-2.9,0-5.7,0.6-8.3,1.7    c-2.6,1.1-4.9,2.7-6.8,4.6c-2,2-3.5,4.3-4.6,6.8c-1.1,2.6-1.7,5.4-1.7,8.3c0,3,0.6,5.8,1.7,8.4c1.1,2.6,2.7,4.9,4.6,6.8    c2,1.9,4.3,3.5,6.8,4.6c2.6,1.1,5.4,1.7,8.3,1.7c3,0,5.8-0.6,8.4-1.7c2.6-1.1,4.9-2.7,6.8-4.6c0,0,0.1-0.1,0.1-0.1    c0.2,1.3,0.7,2.4,1.7,3.3c1.2,1.2,2.6,1.8,4.3,1.8h0.5V516c0-1.7-0.6-3.1-1.8-4.2C231.7,510.6,230.2,510,228.5,510z M207,558.1    c-1.8-0.8-3.4-1.9-4.8-3.2c-1.3-1.3-2.4-2.9-3.2-4.7c-0.8-1.8-1.2-3.8-1.2-5.8c0-2,0.4-4,1.2-5.8c0.8-1.8,1.8-3.4,3.2-4.8    c1.4-1.3,3-2.4,4.8-3.2c1.8-0.8,3.7-1.2,5.8-1.2c2.1,0,4,0.4,5.8,1.2c1.8,0.8,3.4,1.8,4.7,3.2c1.4,1.4,2.4,3,3.2,4.8    c0.8,1.8,1.2,3.7,1.2,5.8c0,2.1-0.4,4-1.2,5.8c-0.8,1.8-1.9,3.4-3.2,4.7c-1.3,1.4-2.9,2.4-4.7,3.2    C215,559.6,210.6,559.6,207,558.1z"></path>			<path class="st0" d="M278.6,529.1c-2-2-4.3-3.5-6.8-4.6c-2.6-1.1-5.4-1.7-8.3-1.7c-3,0-5.8,0.6-8.4,1.7c-2.6,1.1-4.9,2.7-6.8,4.6    c-1.9,2-3.5,4.3-4.6,6.8c-1.1,2.6-1.7,5.4-1.7,8.3c0,3,0.6,5.8,1.7,8.4c1.1,2.6,2.7,4.9,4.6,6.8c2,1.9,4.3,3.5,6.8,4.6    c2.6,1.1,5.4,1.7,8.4,1.7c3.9,0,7.5-1,10.7-2.9c3.3-1.9,6-4.6,7.9-7.9l0.2-0.4l-1.1-0.7c-2.6-1.3-5-1-7.2,1    c-0.9,0.9-2,1.7-3.1,2.3c-2.2,1.3-4.7,2-7.4,2c-2.1,0-4-0.4-5.8-1.2c-1.8-0.8-3.4-1.9-4.7-3.2c-2-2-3.3-4.4-4-7.2h36v-3.3    c0-2.9-0.6-5.7-1.7-8.3C282.1,533.4,280.6,531.1,278.6,529.1z M269.2,530.5c1.8,0.8,3.4,1.9,4.8,3.2c2,2,3.3,4.4,4,7.3h-29.1    c0.7-2.8,2-5.3,4-7.3l0,0c1.3-1.4,2.9-2.4,4.7-3.2C261.2,529,265.6,529,269.2,530.5z"></path>			<path class="st0" d="M317.6,527.8l-11.8,28.3l-11.8-28.3l0,0c-1.2-2.4-3.1-3.6-5.5-3.6h-3.1l15.3,36.7c1.2,2.4,3.1,3.6,5.5,3.6    h3.2l16.8-40.4h-3.1C320.7,524.1,318.9,525.4,317.6,527.8z"></path>			<path class="st0" d="M336.3,526.9c-1.2-1.8-2.9-2.8-5.1-2.8h-0.5V564l0.1,0.5h0.5c1.7,0,3.1-0.6,4.2-1.8c1.2-1.2,1.7-2.6,1.7-4.2    V538c0-2,0.7-3.7,2.1-5.1c1.4-1.4,3.1-2.1,5.1-2.2c1.7,0,3.1-0.6,4.2-1.8c1.1-1.1,1.7-2.6,1.7-4.2v-0.6h-5.9    C341.5,524.1,338.7,525.1,336.3,526.9z"></path>			<path class="st0" d="M358.2,510c-1.3,0-2.3,0.5-3.2,1.4c-0.9,0.9-1.3,2-1.3,3.2s0.4,2.3,1.3,3.2c0.9,0.9,2,1.4,3.2,1.4    c1.3,0,2.3-0.5,3.2-1.3s1.3-2,1.3-3.2s-0.5-2.3-1.3-3.2S359.4,510,358.2,510z"></path>			<path class="st0" d="M354.9,564l0.1,0.5h0.5c1.7,0,3.1-0.6,4.2-1.7s1.7-2.6,1.7-4.2v-34.3h-6.6V564z"></path>			<path class="st0" d="M372.7,509.9h-0.6v54l0.1,0.5h0.5c1.7,0,3.1-0.6,4.2-1.7s1.7-2.6,1.7-4.2v-42.6c0-1.6-0.6-3-1.7-4.2    C375.8,510.5,374.4,509.9,372.7,509.9z"></path>			<path class="st0" d="M393.8,540.5l11-16.4h-3.4c-2.9,0-5.3,1.3-7.1,3.8l-6,8.9c-0.9,1.4-2.1,2.4-3.4,3.1l-0.2,0.2    c-0.3,0.1-0.5,0.2-0.8,0.3c-1.2,0.5-2.2,1.2-2.9,2.2c-0.7,1-1.1,2.2-1.1,3.4v1.5h0.5c1.7,0,3.2,0.4,4.5,1.1    c1.3,0.7,2.5,1.8,3.4,3.1l6,8.9c1.8,2.5,4.1,3.7,7.1,3.7h3.4l-11-16.4c-1-1.5-2.2-2.8-3.5-3.8C391.6,543.3,392.8,542,393.8,540.5    z"></path>			<path class="st0" d="M442.8,529.2c-2-2-4.3-3.5-6.8-4.6c-2.6-1.1-5.4-1.7-8.3-1.7c-3,0-5.8,0.6-8.4,1.7c-2.6,1.1-4.9,2.7-6.8,4.6    c-1.9,1.9-3.5,4.2-4.6,6.8c-1.1,2.6-1.7,5.4-1.7,8.4c0,2.9,0.6,5.7,1.7,8.3c1.1,2.6,2.7,4.9,4.6,6.8c2,2,4.3,3.5,6.8,4.6    c2.6,1.1,5.4,1.7,8.4,1.7c2.9,0,5.7-0.6,8.3-1.7c2.5-1.1,4.8-2.6,6.7-4.5c0.2,1.2,0.8,2.2,1.7,3.1c1.1,1.1,2.5,1.7,4.2,1.7h0.5    v-20.3C448.9,538.2,446.8,533.1,442.8,529.2z M427.6,559.3c-2.1,0-4-0.4-5.8-1.2c-1.8-0.8-3.4-1.9-4.7-3.2    c-1.4-1.4-2.4-3-3.2-4.8c-0.8-1.8-1.2-3.7-1.2-5.8c0-2.1,0.4-4,1.2-5.8c0.8-1.8,1.9-3.4,3.2-4.8c1.3-1.4,2.9-2.4,4.7-3.2    c1.8-0.8,3.8-1.2,5.8-1.2c2,0,4,0.4,5.8,1.2c1.8,0.8,3.4,1.9,4.8,3.2c2.7,2.8,4.2,6.3,4.3,10.4v0.2c-0.1,4.2-1.6,7.7-4.3,10.4    c-1.4,1.4-3,2.4-4.8,3.2C431.6,558.9,429.6,559.3,427.6,559.3z"></path>		</g>		<g id="Group_142" transform="translate(-3581 -59.934)">			<g id="_8355715" transform="translate(3668 553.934)">									<linearGradient id="Path_526_00000133531150125712969110000000454881032680632990_" gradientUnits="userSpaceOnUse" x1="-120.3127" y1="436.6768" x2="-119.9397" y2="435.8138" gradientTransform="matrix(88.9656 0 0 -79.4451 10735.7676 34691.3281)">					<stop offset="0" style="stop-color:#0ABECF"></stop>					<stop offset="1" style="stop-color:#47499E"></stop>				</linearGradient>				<path id="Path_526" style="fill:url(#Path_526_00000133531150125712969110000000454881032680632990_);" d="M91.9,22.5     C86.4,4.7,64.3,4,39.7,11.7s-40.1,14-34.6,31.7s27,49.6,51.6,42S97.3,40.2,91.9,22.5L91.9,22.5z"></path>				<g id="Group_127" transform="translate(6.323 0)">											<linearGradient id="Path_527_00000178885402704517725550000003317637579979144354_" gradientUnits="userSpaceOnUse" x1="-125.5146" y1="436.2996" x2="-126.6406" y2="436.0586" gradientTransform="matrix(88.962 0 0 -79.4445 11293.8691 34684.0039)">						<stop offset="0" style="stop-color:#0ABECF"></stop>						<stop offset="1" style="stop-color:#47499E"></stop>					</linearGradient>					<path id="Path_527" style="fill:url(#Path_527_00000178885402704517725550000003317637579979144354_);" d="M1.1,64      c5.5,17.7,27.6,18.4,52.2,10.8s40.1-14,34.6-31.7s-27-49.6-51.6-42S-4.4,46.3,1.1,64z"></path>					<g>						<defs>							<path id="SVGID_1_" d="M1.1,64c5.5,17.7,27.6,18.4,52.2,10.8s40.1-14,34.6-31.7s-27-49.6-51.6-42S-4.4,46.3,1.1,64z"></path>						</defs>						<clipPath id="SVGID_00000009571294650881368220000015902183074478791069_">							<use xlink:href="#SVGID_1_" style="overflow:visible;"></use>						</clipPath>						<g id="Group_126" style="clip-path:url(#SVGID_00000009571294650881368220000015902183074478791069_);">															<linearGradient id="Path_528_00000173882994464525429840000000400851411719615629_" gradientUnits="userSpaceOnUse" x1="-126.9537" y1="436.7148" x2="-126.2667" y2="435.6448" gradientTransform="matrix(88.962 0 0 -79.4445 11293.8691 34684.0039)">								<stop offset="0" style="stop-color:#0ABECF"></stop>								<stop offset="1" style="stop-color:#47499E"></stop>							</linearGradient>							<path id="Path_528" style="fill:url(#Path_528_00000173882994464525429840000000400851411719615629_);" d="M1.1,64        c5.5,17.7,27.6,18.4,52.2,10.8s40.1-14,34.6-31.7s-27-49.6-51.6-42S-4.4,46.3,1.1,64z"></path>															<linearGradient id="Path_529_00000001644328379372972080000012430356230929182639_" gradientUnits="userSpaceOnUse" x1="-125.4014" y1="437.2393" x2="-126.5564" y2="437.0633" gradientTransform="matrix(82.4031 0 0 -102.9507 10469.8398 45048.3281)">								<stop offset="0" style="stop-color:#0ABECF"></stop>								<stop offset="1" style="stop-color:#47499E"></stop>							</linearGradient>							<path id="Path_529" style="fill:url(#Path_529_00000001644328379372972080000012430356230929182639_);" d="M47-1.9        c0,0,39.8,58.6-29.4,85.3c0,0,27.9,29,65.3,12.6S91,7,47-1.9z"></path>						</g>					</g>				</g>									<linearGradient id="Ellipse_1_00000157279371035927809800000014287169740266332819_" gradientUnits="userSpaceOnUse" x1="-121.9431" y1="409.1817" x2="-121.1631" y2="408.0997" gradientTransform="matrix(10.9685 -3.7875 -3.7875 -10.9685 2955.02 4096.814)">					<stop offset="0" style="stop-color:#0ABECF"></stop>					<stop offset="1" style="stop-color:#47499E"></stop>				</linearGradient>									<circle id="Ellipse_1" style="fill:url(#Ellipse_1_00000157279371035927809800000014287169740266332819_);" cx="76" cy="76.4" r="5.8"></circle>									<linearGradient id="Ellipse_2_00000116216550978772242890000018223056053953733048_" gradientUnits="userSpaceOnUse" x1="-96.2786" y1="367.1855" x2="-95.5016" y2="366.1035" gradientTransform="matrix(4.742 0 0 -4.742 540.491 1808.5869)">					<stop offset="0" style="stop-color:#0ABECF"></stop>					<stop offset="1" style="stop-color:#47499E"></stop>				</linearGradient>									<circle id="Ellipse_2" style="fill:url(#Ellipse_2_00000116216550978772242890000018223056053953733048_);" cx="86.3" cy="70.7" r="2.4"></circle>									<linearGradient id="Ellipse_3_00000159460390642708156280000000477043532617685129_" gradientUnits="userSpaceOnUse" x1="-96.2799" y1="367.186" x2="-95.5009" y2="366.103" gradientTransform="matrix(4.742 0 0 -4.742 456.524 1786.1279)">					<stop offset="0" style="stop-color:#0ABECF"></stop>					<stop offset="1" style="stop-color:#47499E"></stop>				</linearGradient>									<circle id="Ellipse_3" style="fill:url(#Ellipse_3_00000159460390642708156280000000477043532617685129_);" cx="2.4" cy="48.3" r="2.4"></circle>			</g>			<g id="_8355715-2" transform="translate(3696.07 566.179)">				<path id="Path_596" class="st9" d="M25.8,48.9c-1.1,0-2.1,0-3.2,0c-0.8,0.1-1.5-0.5-1.6-1.3s0.5-1.5,1.3-1.6c0.1,0,0.2,0,0.3,0     c1.6,0,3.2,0,4.9,0c0.3,0,0.6-0.1,0.7-0.4c1.5-3.7,3.6-7,6.2-9.9c1.4-1.5,2.7-3.2,3.9-4.9c1.4-2.2,2.2-4.8,2.4-7.4     c0.2-2,0-3.9-0.4-5.9c-1.2-5.3-4.7-9.8-9.5-12.3c-2.1-1.1-4.4-1.8-6.8-2c-0.6-0.1-0.6,0-0.4,0.5c0.2,0.5,0.3,1.1,0.3,1.6     c0,5.9,0,11.9,0,17.8c0,0.7,0,0.7,0.7,0.4c1-0.4,2-0.8,3.1-1.1c0.6-0.1,1-0.6,1.1-1.1c0.1-0.3,0.2-0.7,0.3-1     c0.2-0.5,0.7-0.8,1.2-0.8c0.5,0,1,0.2,1.2,0.7c0.2,0.4,0.3,0.9,0.2,1.3c-0.2,1.6-1.4,3-3,3.4c-0.9,0.4-1.9,0.7-2.9,1.1     c-1.2,0.5-1.9,1.6-1.9,2.9c-0.1,3-0.1,5.9-0.1,8.9c0.1,1.2-0.2,2.4-0.9,3.4c-0.8,1.1-2,1.8-3.4,1.9c-3.5,0.5-7-0.7-9.4-3.2     c-0.6-0.6-1.1-1.4-1.5-2.1c-0.1-0.2-0.3-0.4-0.6-0.5c-2.3-0.7-4.2-2.5-5-4.7c-0.5-1.3-0.7-2.6-0.5-4c0-0.2,0-0.4-0.1-0.5     c-1.3-1.4-2.2-3.2-2.3-5.1C-0.3,20,0.3,16.8,1.7,14c0.4-0.7,1-1.4,1.7-1.9c0.2-0.1,0.3-0.3,0.3-0.5c0.1-1.5,0.7-2.9,1.7-4     c2-2.4,4.4-4.3,7.2-5.6c2-1,4.2-1.6,6.4-1.9c3.4-0.4,6.8,0,10,1.2c2.3,0.8,4.4,1.9,6.3,3.4c5.1,4,8.2,10,8.3,16.5     c0.2,3.4-0.5,6.7-2,9.8c-1,1.9-2.2,3.6-3.6,5.2c-1.9,2-3.6,4.3-5.1,6.6c-0.9,1.5-1.6,3.1-2.2,4.8c-0.4,1.2-0.8,1.4-2,1.4     L25.8,48.9L25.8,48.9z M21,8.2L21,8.2c0-0.8,0-1.7,0-2.5c0.1-1.1-0.6-2-1.6-2.2c-1.1-0.3-2.2-0.3-3.3,0.1     c-2.9,0.9-5.6,2.6-7.6,4.9c-0.6,0.5-0.9,1.2-1.1,2c-0.1,0.3,0,0.5,0.4,0.4c0.7-0.2,1.4-0.1,2.1,0.1c1.3,0.3,2.3,1.3,2.8,2.5     c0.2,0.5,0.1,1.1-0.3,1.5c-0.4,0.4-0.9,0.5-1.5,0.3c-0.4-0.2-0.8-0.4-1-0.8c-0.6-0.9-1.7-1.3-2.8-1.1c-1.3,0.3-2.5,1.2-3,2.4     c-0.7,1.3-1.1,2.8-1.2,4.3c-0.2,1.7,0.1,3.4,0.7,4.9c0.1,0.3,0.2,0.4,0.5,0.1C5,24,6.2,23.2,7.6,22.8c0.9-0.4,1.9-0.5,2.9-0.3     c0.7,0.1,1.3,0.7,1.2,1.5c-0.1,0.6-0.5,1.1-1.1,1.2c-0.4,0.1-0.7,0.1-1.1,0.1c-1.7,0-3.2,1.1-3.8,2.7c-0.7,2-0.1,4.1,1.4,5.5     c0.2,0.2,0.4,0.6,0.6,0.5c0.2-0.1,0.1-0.5,0.2-0.8c0.1-2.2,1.2-4.2,3-5.5c1.6-1.1,3.6-1.6,5.5-1.3c0.5,0,0.9,0.3,1.3,0.6     c0.4,0.4,0.4,1,0.2,1.5c-0.3,0.5-0.9,0.8-1.6,0.7c-0.5-0.1-1-0.1-1.4-0.1c-1.5,0.1-2.9,1-3.6,2.3c-1,2.4-0.4,5.2,1.5,6.9     c1.8,1.5,4.1,2.2,6.4,2c1,0.1,1.9-0.7,2-1.7c0-0.1,0-0.3,0-0.4c0-7,0-13.9,0-20.9c0-0.5,0-1-0.1-1.6c-0.1-0.8-0.6-1.6-1.3-2     c-0.6-0.4-1.3-0.7-2.1-0.9c-0.9-0.3-1.8-0.7-2.6-1.1c-1.2-0.7-1.9-2.1-1.7-3.5c0-0.8,0.7-1.3,1.4-1.3c0.6,0,1.1,0.5,1.3,1.1     c0.1,0.2,0.1,0.5,0.2,0.7c0.1,0.5,0.5,0.9,1,1c1.2,0.3,2.4,0.8,3.6,1.3c0.3,0.2,0.3,0,0.3-0.2C21,10,21,9.1,21,8.2L21,8.2z"></path>				<path id="Path_597" class="st9" d="M20.1,51.7c3,0,5.9,0,8.9,0c0.8,0,1.5,0.5,1.5,1.3c0,0.2,0,0.4-0.1,0.6c-0.2,0.6-0.9,1-1.5,1     c-2.4,0-4.7,0-7.1,0c-3.5,0-7,0-10.4,0c-0.8,0.1-1.5-0.5-1.6-1.3c0,0,0,0,0-0.1c-0.1-0.8,0.4-1.5,1.2-1.6c0.1,0,0.2,0,0.2,0     c1.5,0,2.9,0,4.4,0L20.1,51.7L20.1,51.7L20.1,51.7z"></path>				<path id="Path_598" class="st9" d="M22.9,60.3c-1.9,0-3.9,0-5.8,0c-0.5,0-1-0.1-1.3-0.4c-0.4-0.4-0.6-1-0.3-1.5     c0.2-0.6,0.7-0.9,1.3-0.9c4-0.1,8,0,12.1-0.1c0.5-0.1,1.1,0.2,1.4,0.6c0.3,0.4,0.4,1,0.2,1.5c-0.3,0.6-0.8,0.9-1.5,0.9     c-1.5,0-2.9,0-4.4,0L22.9,60.3L22.9,60.3L22.9,60.3z"></path>				<path id="Path_599" class="st9" d="M16.8,48.9c-0.8,0-1.5-0.6-1.5-1.4c0-0.8,0.7-1.5,1.5-1.5c0.8,0,1.5,0.7,1.5,1.5l0,0     C18.3,48.3,17.6,48.9,16.8,48.9z"></path>				<path id="Path_600" class="st9" d="M11.2,57.4c0.8,0,1.4,0.5,1.5,1.3c0,0,0,0.1,0,0.1c0,0.8-0.7,1.5-1.5,1.5     c-0.8,0-1.4-0.7-1.4-1.5c0-0.7,0.5-1.4,1.3-1.4C11.1,57.4,11.1,57.4,11.2,57.4L11.2,57.4z"></path>				<path id="Path_601" class="st9" d="M4.1,53.1c0-0.8,0.6-1.4,1.4-1.4c0,0,0.1,0,0.1,0c0.8,0,1.4,0.7,1.4,1.5     c0,0.8-0.7,1.4-1.5,1.4C4.7,54.6,4.1,54,4.1,53.1C4.1,53.1,4.1,53.1,4.1,53.1L4.1,53.1z"></path>			</g>		</g>	</g></g></svg>